<svg width="1728" height="247" viewBox="0 0 1728 247" fill="none" xmlns="http://www.w3.org/2000/svg">
<path fill-rule="evenodd" clip-rule="evenodd" d="M-22 98.8L36.3333 118.56C94.6667 138.32 211.333 177.84 328 167.96C444.667 158.08 561.333 98.8 678 59.28C794.667 19.76 911.333 0 1028 0C1144.67 0 1261.33 19.76 1378 54.34C1494.67 88.92 1611.33 138.32 1669.67 163.02L1728 187.72V247H1669.67C1611.33 247 1494.67 247 1378 247C1261.33 247 1144.67 247 1028 247C911.333 247 794.667 247 678 247C561.333 247 444.667 247 328 247C211.333 247 94.6667 247 36.3333 247H-22V98.8Z" fill="#224957" fill-opacity="0.8"/>
</svg>
